<?xml version="1.0" standalone="no"?>
<!DOCTYPE svg PUBLIC "-//W3C//DTD SVG 1.1//EN" "http://www.w3.org/Graphics/SVG/1.1/DTD/svg11.dtd" >
<svg xmlns="http://www.w3.org/2000/svg">
<metadata></metadata>
<defs>
<font id="cyberfallregular" horiz-adv-x="1400" >
<font-face units-per-em="2048" ascent="1638" descent="-410" />
<missing-glyph horiz-adv-x="800" />
<glyph horiz-adv-x="0" />
<glyph unicode="&#xd;" horiz-adv-x="100" />
<glyph horiz-adv-x="100" />
<glyph horiz-adv-x="100" />
<glyph unicode=" "  horiz-adv-x="800" />
<glyph unicode="&#x09;" horiz-adv-x="800" />
<glyph unicode="&#xa0;" horiz-adv-x="800" />
<glyph unicode="!" horiz-adv-x="600" d="M100 0v350h400v-350h-400zM100 450v950h400v-950h-400z" />
<glyph unicode="&#x22;" horiz-adv-x="1100" d="M100 850v550h400v-375l-175 -175h-225zM600 850v550h400v-375l-175 -175h-225z" />
<glyph unicode="#" d="M100 175v350h100v350h-100v350h100v175h400v-175h200v174h400v-174h100l-1 -350h-99v-350h100l-1 -350h-99v-175h-400v175h-200v-175h-400v175h-100zM600 525h200v350h-200v-350z" />
<glyph unicode="$" d="M100 100v350h800v75h-625l-175 175v425l174 175h226v100h400v-100h400v-350h-800v-75h625l175 -175v-425l-175 -175h-225v-100h-400v100h-400z" />
<glyph unicode="%" horiz-adv-x="1800" d="M100 700l1 525l174 175h650l113 -113l62 113h425l-291 -525h291l175 -175l-1 -524l-175 -175l-649 -1l-80 80l-45 -80h-425l291 526l-341 -1zM500 875l199 1l1 174h-199zM1100 350l199 1l1 174h-199z" />
<glyph unicode="&#x26;" d="M100 175v426l100 99l-100 100v425l176 175h649l175 -175v-350h200v-350h-200v-175h200v-350h-175l-100 100h-1l-99 -99l-650 -1zM500 350l200 1v174h-200v-175zM500 875l200 1v174h-200v-175z" />
<glyph unicode="'" horiz-adv-x="600" d="M100 850v550h400v-375l-175 -175h-225z" />
<glyph unicode="(" horiz-adv-x="1000" d="M100 -26v1451l174 175h626v-350h-400v-1101l400 1v-351h-625z" />
<glyph unicode=")" horiz-adv-x="1000" d="M100 150l400 -1v1101h-400v350h626l174 -175v-1451l-175 -175h-625v351z" />
<glyph unicode="*" horiz-adv-x="1725" d="M100 924l123 380l439 -143v439h401v-439l439 143l123 -380l-419 -136l256 -353l-323 -235l-276 380l-277 -380l-323 235l256 353z" />
<glyph unicode="+" horiz-adv-x="1300" d="M100 525v350h350v375h400v-375h350l-1 -350h-349v-375h-400v375h-350z" />
<glyph unicode="," horiz-adv-x="600" d="M100 -200v550h400v-375l-175 -175h-225z" />
<glyph unicode="-" horiz-adv-x="1300" d="M100 525v350h1100l-1 -350h-1099z" />
<glyph unicode="." horiz-adv-x="600" d="M100 0v350h400v-350h-400z" />
<glyph unicode="/" horiz-adv-x="1350" d="M50 0l775 1400h425l-775 -1400h-425z" />
<glyph unicode="0" horiz-adv-x="1401" d="M100 175v1050l174 175h851l175 -175v-674h1l-1 -375l-175 -175l-850 -1zM500 350l400 1v699h-400v-700z" />
<glyph unicode="1" horiz-adv-x="800" d="M101 1050v350h599v-1400h-400v1050h-199z" />
<glyph unicode="2" d="M100 0v700l175 175h625v175h-800v175l175 175h850l175 -175v-525l-175 -175h-625v-175h800v-350h-1200z" />
<glyph unicode="3" d="M100 0v350l800 1v174h-500v350l500 1v174h-800v350h1025l175 -175v-425l-100 -100l100 -100v-424l-175 -175z" />
<glyph unicode="4" d="M100 350v1050h400v-700h400v700h400v-1399h-400v349h-800z" />
<glyph unicode="5" d="M100 175v175h800v175h-800v875h1200v-350h-800v-175h625l175 -175v-525l-175 -175h-850z" />
<glyph unicode="6" d="M100 175v1050l174 175h1026v-350h-800v-175h625l175 -175v-525l-175 -175h-850zM500 350h400v175h-400v-175z" />
<glyph unicode="7" horiz-adv-x="1301" d="M50 0l609 1050h-558v350h1099v-150h1l-726 -1250h-425z" />
<glyph unicode="8" d="M100 175v426l100 99l-100 100v425l176 175h849l175 -175v-425l-100 -100l100 -100v-424l-175 -175l-850 -1zM500 350l400 1v174h-400v-175zM500 875l400 1v174h-400v-175z" />
<glyph unicode="9" d="M100 0v350h800v175h-625l-175 175v525l175 175h850l175 -175v-1050l-174 -175h-1026zM500 875h400v175h-400v-175z" />
<glyph unicode=":" horiz-adv-x="600" d="M100 0v350h400v-350h-400zM100 525v350h400v-350h-400z" />
<glyph unicode=";" horiz-adv-x="600" d="M100 -200v550h400v-375l-175 -175h-225zM100 525v350h400v-350h-400z" />
<glyph unicode="&#x3c;" horiz-adv-x="1301" d="M100 525v375l1101 400l-1 -350l-653 -237l653 -238l-1 -350z" />
<glyph unicode="=" horiz-adv-x="1300" d="M100 250v350h1100l-1 -350h-1099zM100 800v350h1100l-1 -350h-1099z" />
<glyph unicode="&#x3e;" horiz-adv-x="1301" d="M100 1300l1101 -400v-375l-1099 -400l-1 350l653 238l-653 237z" />
<glyph unicode="?" d="M100 1050v350h1025l175 -175v-525l-175 -175h-375v-75h-400v250l175 175h375v175h-800zM350 0v350h400v-350h-400z" />
<glyph unicode="@" d="M100 175v1050l174 175h851l175 -175v-525l-175 -175h-450l-175 175v-350h800v-350h-1025zM500 875h400v175h-400v-175z" />
<glyph unicode="A" horiz-adv-x="1600" d="M50 0l296 975h400l-83 -275h225l-113 371l-6 -21h-400l106 350h600l425 -1400h-400l-106 350h-438l-106 -350h-400z" />
<glyph unicode="B" d="M100 0v975h400v-100l400 1v174h-800v350h1025l175 -175v-425l-100 -100l100 -100v-424l-175 -175zM500 350l400 1v174h-400v-175z" />
<glyph unicode="C" horiz-adv-x="1401" d="M100 175v800h400v-625l400 1v200h401l-1 -375l-175 -175l-850 -1zM100 1050v175l174 175h851l175 -175v-375l-401 1l1 199h-800z" />
<glyph unicode="D" d="M100 0v975h400v-625l400 1v699h-800v350h1025l175 -175v-1049l-175 -175z" />
<glyph unicode="E" horiz-adv-x="1301" d="M100 0l1 975h399v-100h401l-1 -350h-400v-175h701l-1 -350h-1100zM101 1050v350h1100l-1 -350h-1099z" />
<glyph unicode="F" horiz-adv-x="1301" d="M100 0l1 975h399v-100h401l-1 -350h-400v-525h-400zM101 1050v350h1100l-1 -350h-1099z" />
<glyph unicode="G" d="M100 175v800h400v-625h400v175h-200v350h600v-700l-175 -175h-850zM100 1050v175l174 175h1026v-350h-1200z" />
<glyph unicode="H" d="M100 0v1400h400v-525h325v-350h-325v-525h-400zM900 1v1399h400v-1399h-400z" />
<glyph unicode="I" horiz-adv-x="600" d="M100 0v1400h400v-1400h-400z" />
<glyph unicode="J" d="M100 175v375h400v-200l400 1v1049h400v-1224l-175 -175l-850 -1z" />
<glyph unicode="K" horiz-adv-x="1450" d="M100 0v1400h400v-450l124 139l171 -257l555 -832h-450l-362 543l-38 -43v-500h-400zM667 1138l233 262h400l-462 -520z" />
<glyph unicode="L" horiz-adv-x="1401" d="M100 0l1 1400h399v-1050h801l-1 -350h-1200z" />
<glyph unicode="M" horiz-adv-x="1800" d="M100 0v1400h550l250 -824l175 -576h-400l-175 576v-576h-400zM938 700l212 700h550v-1400h-400v576l-162 -535z" />
<glyph unicode="N" horiz-adv-x="1700" d="M100 0v975h400v-975h-400zM100 1050v350h625l475 -858v857h400v-1399h-525l-575 1050h-400z" />
<glyph unicode="O" d="M100 175v800h400v-625l400 1v699h-800v175l174 175h851l175 -175v-1049l-175 -175l-850 -1z" />
<glyph unicode="P" d="M100 0v975h400v-100l400 1v174h-800v350h1025l175 -175v-524l-175 -175l-625 -1v-525h-400z" />
<glyph unicode="Q" d="M100 175v800h400v-625l260 1l-210 524h350v175h-800v175l174 175h851l175 -175v-1049l-15 -15l65 -161h-1075z" />
<glyph unicode="R" d="M100 0v975h400v-100l400 1v174h-800v350h1025l175 -175v-524l-160 -160l210 -541h-450l-203 525h-197v-525h-400z" />
<glyph unicode="S" d="M100 0v350h800v175h-625l-175 175v275h400v-100h625l175 -175v-525l-175 -175h-1025zM100 1050v175l174 175h1026v-350h-1200z" />
<glyph unicode="T" d="M100 1050v350h1200v-350h-1200zM500 1v974h400v-974h-400z" />
<glyph unicode="U" d="M100 175v1225h400v-1050l400 1v1049h400v-1224l-175 -175l-850 -1z" />
<glyph unicode="V" horiz-adv-x="1550" d="M50 1400h400l325 -1071l100 -329h-400zM763 453l287 947h400l-425 -1400h-125z" />
<glyph unicode="W" horiz-adv-x="1850" d="M50 1400h400l115 -538v1l185 -863h-400zM606 1024l94 376h400l135 -538l115 538h400l-300 -1400h-400l-150 600l-110 -438z" />
<glyph unicode="X" horiz-adv-x="1350" d="M50 0l388 700l-388 700h425l775 -1400h-425l-175 316l-175 -316h-425zM687 1152l138 248h425l-350 -633z" />
<glyph unicode="Y" horiz-adv-x="1350" d="M50 1400h425l386 -703l-11 -20v-677h-400v677zM687 1150l138 250h425l-352 -635z" />
<glyph unicode="Z" horiz-adv-x="1301" d="M100 0v250l544 725h425l-469 -625h601l-1 -350h-1100zM101 1050v350h1100l-1 -250l-75 -100h-1024z" />
<glyph unicode="[" horiz-adv-x="1550" d="M100 1325h175l40 -160l285 -140l50 -250h-275l-195 110zM200 825l100 -50l25 -125l150 -100v-425l-250 100zM240 1125l10 -50l300 -125l-10 50zM265 1005l10 -50l300 -125l-10 50zM325 1300q175 100 425 100h50q250 0 425 -100l-25 -100q-78 -42 -425 -175 q-347 133 -425 175zM525 100v450l125 100v-345h250v345l125 -100v-450l-65 -40l-50 175h-270l-50 -175zM620 0l50 190h210l50 -190h-310zM625 1235l150 -85l150 85q-50 40 -125 40h-50q-75 0 -125 -40zM650 1025l125 -50l125 50l-50 -275v-400h-150v400zM900 775l50 250 l285 140l40 160h175l-80 -440l-195 -110h-275zM975 830l300 125l10 50l-300 -125zM1000 950l300 125l10 50l-300 -125zM1075 125v425l150 100l25 125l100 50l-25 -600z" />
<glyph unicode="\" horiz-adv-x="1350" d="M50 1400h425l775 -1400h-425z" />
<glyph unicode="]" horiz-adv-x="1600" d="M100 1400l125 -150l350 -125l10 -85l-295 95l10 -65l300 -95l10 -85l-296 100l11 -60l300 -105l175 -150l175 150l300 105l11 60l-296 -100l10 85l300 95l10 65l-295 -95l10 85l350 125l125 150l-76 -549l-624 -851l-624 851zM200 725l526 -725l-477 225zM350 750 l275 -300l85 190l-360 125v-15zM600 1450l125 -225h150l125 225l-75 -600l-121 -102l-4 3l-4 -3l-121 102zM736 1101l64 -202l64 202h-128zM874 0l526 725l-49 -500zM890 640l85 -190l275 300v15z" />
<glyph unicode="^" horiz-adv-x="1250" d="M100 1575l300 550h450l300 -550h-400l-125 229l-125 -229h-400z" />
<glyph unicode="_" horiz-adv-x="1300" d="M100 -100h1100l-1 -350h-1099v350z" />
<glyph unicode="`" horiz-adv-x="900" d="M100 2125h400l300 -550h-400z" />
<glyph unicode="a" horiz-adv-x="1600" d="M50 0l425 1400h600l425 -1400h-400l-106 350h-438l-106 -350h-400zM663 700h225l-113 371z" />
<glyph unicode="b" d="M100 0v1400h1025l175 -175v-425l-100 -100l100 -100v-424l-175 -175zM500 350l400 1v174h-400v-175zM500 875l400 1v174h-400v-175z" />
<glyph unicode="c" horiz-adv-x="1401" d="M100 175v1050l174 175h851l175 -175v-375l-401 1l1 199h-400v-700l400 1v200h401l-1 -375l-175 -175l-850 -1z" />
<glyph unicode="d" d="M100 0v1400h1025l175 -175v-1049l-175 -175zM500 350l400 1v699h-400v-700z" />
<glyph unicode="e" horiz-adv-x="1301" d="M100 0l1 1400h1100l-1 -350h-700v-175h401l-1 -350h-400v-175h701l-1 -350h-1100z" />
<glyph unicode="f" horiz-adv-x="1301" d="M100 0l1 1400h1100l-1 -350h-700v-175h401l-1 -350h-400v-525h-400z" />
<glyph unicode="g" d="M100 175v1050l174 175h1026v-350h-800v-700h400v175h-200v350h600v-700l-175 -175h-850z" />
<glyph unicode="h" d="M100 0v1400h400v-525h400v525h400v-1399h-400v524h-400v-525h-400z" />
<glyph unicode="i" horiz-adv-x="600" d="M100 0v1400h400v-1400h-400z" />
<glyph unicode="j" d="M100 175v375h400v-200l400 1v1049h400v-1224l-175 -175l-850 -1z" />
<glyph unicode="k" horiz-adv-x="1450" d="M100 0v1400h400v-450l400 450h400l-505 -568l555 -832h-450l-362 543l-38 -43v-500h-400z" />
<glyph unicode="l" horiz-adv-x="1401" d="M100 0l1 1400h399v-1050h801l-1 -350h-1200z" />
<glyph unicode="m" horiz-adv-x="1800" d="M100 0v1400h550l250 -824l250 824h550v-1400h-400v576l-175 -576h-450l-175 576v-576h-400z" />
<glyph unicode="n" horiz-adv-x="1700" d="M100 0v1400h625l475 -858v857h400v-1399h-525l-575 1039v-1039h-400z" />
<glyph unicode="o" d="M100 175v1050l174 175h851l175 -175v-1049l-175 -175l-850 -1zM500 350l400 1v699h-400v-700z" />
<glyph unicode="p" d="M100 0v1400h1025l175 -175v-524l-175 -175l-625 -1v-525h-400zM500 875l400 1v174h-400v-175z" />
<glyph unicode="q" d="M100 175v1050l174 175h851l175 -175v-1049l-15 -15l65 -161h-1075zM500 350l260 1l-210 524h350v175h-400v-700z" />
<glyph unicode="r" d="M100 0v1400h1025l175 -175v-524l-160 -160l210 -541h-450l-203 525h-197v-525h-400zM500 875l400 1v174h-400v-175z" />
<glyph unicode="s" d="M100 0v350h800v175h-625l-175 175v525l174 175h1026v-350h-800v-175h625l175 -175v-525l-175 -175h-1025z" />
<glyph unicode="t" d="M100 1050v350h1200v-350h-400v-1049h-400v1049h-400z" />
<glyph unicode="u" d="M100 175v1225h400v-1050l400 1v1049h400v-1224l-175 -175l-850 -1z" />
<glyph unicode="v" horiz-adv-x="1600" d="M50 1400h400l325 -1071l325 1071h400l-425 -1400h-600z" />
<glyph unicode="w" horiz-adv-x="1850" d="M50 1400h400l115 -538l135 538h400l135 -538l115 538h400l-300 -1400h-400l-150 600l-150 -600h-400z" />
<glyph unicode="x" horiz-adv-x="1350" d="M50 0l388 700l-388 700h425l175 -316l175 316h425l-387 -700l387 -700h-425l-175 316l-175 -316h-425z" />
<glyph unicode="y" horiz-adv-x="1350" d="M50 1400h425l175 -316l175 316h425l-400 -723v-677h-400v677z" />
<glyph unicode="z" horiz-adv-x="1301" d="M100 0v250l600 800h-599v350h1100l-1 -250l-600 -800h601l-1 -350h-1100z" />
<glyph unicode="{" horiz-adv-x="1650" d="M100 1350l260 -25l50 -165q241 -152 241 -164q3 -6 49 -296l-285 50l-215 150zM225 850l175 -125l10 -65l94 -57l-4 -478l-225 200zM250 1175l10 -50l300 -200l-10 50zM275 1050l10 -50l300 -200l-10 50zM390 1325q185 75 385 75h100q200 0 385 -75l-35 -145l-397 -262 l-3 2l-3 -2l-397 262zM525 100v500l174 75l1 -350h250l1 350l174 -75v-500l-100 -75l-69 201h-262l-69 -201zM650 0l60 200l115 1l115 -1l60 -200h-350zM674 1225l151 -125l151 125h-302zM675 985l150 -92l150 92l-49 -310l-1 -325h-200l-1 325zM950 700q46 290 49 296 q0 12 241 164l50 165l260 25l-100 -450l-215 -150zM1065 800l300 200l10 50l-300 -200zM1090 925l300 200l10 50l-300 -200zM1146 603l94 57l10 65l175 125l-50 -525l-225 -200z" />
<glyph unicode="|" horiz-adv-x="600" d="M100 -200v1800h400v-1800h-400z" />
<glyph unicode="}" horiz-adv-x="1450" d="M100 1450l215 -275l191 -65l32 -131l-195 56l7 -37l200 -59l24 -99l-183 50l9 -37l215 -68l110 -114l110 114l215 68l9 37l-183 -50l24 99l200 59l7 37l-195 -56l32 131l191 65l215 275l-115 -625l-510 -825l-510 825zM225 760l425 -695l-339 160zM415 740l35 -65 l175 -85l-40 100zM475 1400l175 -225h150l175 225l-122 -543l-128 -157l-128 157zM676 1050l49 -175l49 175h-98zM800 65l425 695l-86 -535zM825 590l175 85l35 65l-170 -50z" />
<glyph unicode="~" horiz-adv-x="1300" d="M100 1575v275l175 175h525v100h400v-275l-175 -175h-525v-100h-400z" />
<glyph unicode="&#xa1;" horiz-adv-x="600" d="M100 0v950h400v-950h-400zM100 1050v350h400v-350h-400z" />
<glyph unicode="&#xa2;" horiz-adv-x="1401" d="M100 275v850l174 175h226v100h400v-100h225l175 -175v-275l-401 1l1 99h-400v-500l400 1v100h401l-1 -275l-175 -175h-225v-101h-400v100h-225z" />
<glyph unicode="&#xa3;" horiz-adv-x="1301" d="M100 0v350h150v175h-150v350h150v350l175 175h625l151 -150l-1 -200h-550v-175h250v-350h-250v-175h551l-1 -350h-1100z" />
<glyph unicode="&#xa4;" horiz-adv-x="1300" d="M100 100l171 304l-71 71v450l71 71l-171 304h425l116 -200l18 -1l116 201h425l-171 -305l71 -71v-449l-71 -71l171 -304h-425l-116 200h-18l-116 -200h-425zM600 650h100v99l-100 1v-100z" />
<glyph unicode="&#xa5;" horiz-adv-x="1350" d="M50 1400h425l175 -316l175 316h425l-387 -700h337l-1 -350h-349v-350h-400v350h-350v350h337z" />
<glyph unicode="&#xa6;" horiz-adv-x="600" d="M100 -200v725h400v-725h-400zM100 875v725h400v-725h-400z" />
<glyph unicode="&#xa7;" d="M100 -150v350h800v100h-475l-175 175v75l-150 150v675l174 175h1026v-350h-800v-100l475 -1l175 -175v-74l150 -150v-675l-175 -175h-1025zM650 650h100v99l-100 1v-100z" />
<glyph unicode="&#xa8;" horiz-adv-x="1300" d="M100 1600v350h400v-350h-400zM800 1600v350h400v-350h-400z" />
<glyph unicode="&#xa9;" horiz-adv-x="1500" d="M100 687v726l87 87h213v-175h-100v-550h100v-175h-212zM450 788v525l87 87h425l88 -87v-188l-201 1l1 99h-200v-350l200 1v100h200v-188l-88 -87l-425 -1zM1100 600v175h100v550h-100v175h213l87 -87v-726l-87 -87h-213z" />
<glyph unicode="&#xaa;" horiz-adv-x="1650" d="M0 200v1100q0 200 200 200h1100q200 0 200 -200v-1100q0 -200 -200 -200h-1100q-200 0 -200 200zM25 200q1 -175 175 -175h1101q174 0 174 176v1099q0 175 -175 175h-1100q-174 0 -175 -175v-1100z" />
<glyph unicode="&#xab;" horiz-adv-x="1600" d="M100 525v375l650 400l-1 -350l-349 -250l349 -225l-1 -350zM850 525v375l650 400l-1 -350l-349 -250l349 -225l-1 -350z" />
<glyph unicode="&#xac;" horiz-adv-x="1127" d="M187 667v100h840v-491l-1 -1h-98v392h-741z" />
<glyph unicode="&#xad;" horiz-adv-x="1300" d="M100 525v350h1100l-1 -350h-1099z" />
<glyph unicode="&#xae;" horiz-adv-x="1500" d="M100 687v726l87 87h213v-175h-100v-550h100v-175h-212zM450 700v700h513l87 -87v-262l-80 -80l105 -271h-225l-101 263h-99v-263h-200zM650 1138h200v87h-200v-87zM1100 600v175h100v550h-100v175h213l87 -87v-726l-87 -87h-213z" />
<glyph unicode="&#xaf;" horiz-adv-x="1650" d="M0 200v1100q0 200 200 200h1100q200 0 200 -200v-1100q0 -200 -200 -200h-1100q-200 0 -200 200zM25 200q1 -175 175 -175h1101q174 0 174 176v1099q0 175 -175 175h-1100q-174 0 -175 -175v-1100z" />
<glyph unicode="&#xb0;" horiz-adv-x="816" d="M160 1164q0 116 81.5 197t197.5 81q115 0 196 -81.5t81 -196.5q0 -114 -82 -196t-197 -82q-117 0 -197 81t-80 197zM230 1163q0 -87 61 -147t148 -60t147 60t60 147t-60.5 148t-146.5 61t-147.5 -61t-61.5 -148z" />
<glyph unicode="&#xb1;" horiz-adv-x="1650" d="M0 200v1100q0 200 200 200h1100q200 0 200 -200v-1100q0 -200 -200 -200h-1100q-200 0 -200 200zM25 200q1 -175 175 -175h1101q174 0 174 176v1099q0 175 -175 175h-1100q-174 0 -175 -175v-1100z" />
<glyph unicode="&#xb2;" horiz-adv-x="1650" d="M0 200v1100q0 200 200 200h1100q200 0 200 -200v-1100q0 -200 -200 -200h-1100q-200 0 -200 200zM25 200q1 -175 175 -175h1101q174 0 174 176v1099q0 175 -175 175h-1100q-174 0 -175 -175v-1100z" />
<glyph unicode="&#xb3;" horiz-adv-x="1650" d="M0 200v1100q0 200 200 200h1100q200 0 200 -200v-1100q0 -200 -200 -200h-1100q-200 0 -200 200zM25 200q1 -175 175 -175h1101q174 0 174 176v1099q0 175 -175 175h-1100q-174 0 -175 -175v-1100z" />
<glyph unicode="&#xb4;" horiz-adv-x="900" d="M100 1575l300 550h400l-300 -550h-400z" />
<glyph unicode="&#xb5;" horiz-adv-x="1650" d="M0 200v1100q0 200 200 200h1100q200 0 200 -200v-1100q0 -200 -200 -200h-1100q-200 0 -200 200zM25 200q1 -175 175 -175h1101q174 0 174 176v1099q0 175 -175 175h-1100q-174 0 -175 -175v-1100z" />
<glyph unicode="&#xb6;" d="M100 701v524l175 175h1025v-1400h-400v1050h-200v-1050h-400v526h-25z" />
<glyph unicode="&#xb7;" horiz-adv-x="600" d="M100 525v350h400v-350h-400z" />
<glyph unicode="&#xb8;" horiz-adv-x="801" d="M100 -100l200 1v200h401l-1 -375l-175 -175l-425 -1v350z" />
<glyph unicode="&#xb9;" horiz-adv-x="1650" d="M0 200v1100q0 200 200 200h1100q200 0 200 -200v-1100q0 -200 -200 -200h-1100q-200 0 -200 200zM25 200q1 -175 175 -175h1101q174 0 174 176v1099q0 175 -175 175h-1100q-174 0 -175 -175v-1100z" />
<glyph unicode="&#xba;" horiz-adv-x="1650" d="M0 200v1100q0 200 200 200h1100q200 0 200 -200v-1100q0 -200 -200 -200h-1100q-200 0 -200 200zM25 200q1 -175 175 -175h1101q174 0 174 176v1099q0 175 -175 175h-1100q-174 0 -175 -175v-1100z" />
<glyph unicode="&#xbb;" horiz-adv-x="1600" d="M100 1300l650 -400v-375l-648 -400l-1 350l349 225l-349 250zM850 1300l650 -400v-375l-648 -400l-1 350l349 225l-349 250z" />
<glyph unicode="&#xbc;" horiz-adv-x="1650" d="M0 200v1100q0 200 200 200h1100q200 0 200 -200v-1100q0 -200 -200 -200h-1100q-200 0 -200 200zM25 200q1 -175 175 -175h1101q174 0 174 176v1099q0 175 -175 175h-1100q-174 0 -175 -175v-1100z" />
<glyph unicode="&#xbd;" horiz-adv-x="1650" d="M0 200v1100q0 200 200 200h1100q200 0 200 -200v-1100q0 -200 -200 -200h-1100q-200 0 -200 200zM25 200q1 -175 175 -175h1101q174 0 174 176v1099q0 175 -175 175h-1100q-174 0 -175 -175v-1100z" />
<glyph unicode="&#xbe;" horiz-adv-x="1650" d="M0 200v1100q0 200 200 200h1100q200 0 200 -200v-1100q0 -200 -200 -200h-1100q-200 0 -200 200zM25 200q1 -175 175 -175h1101q174 0 174 176v1099q0 175 -175 175h-1100q-174 0 -175 -175v-1100z" />
<glyph unicode="&#xbf;" d="M100 175v525l175 175h375v75h400v-250l-175 -175h-375v-175h800v-350h-1025zM650 1050v350h400v-350h-400z" />
<glyph unicode="&#xc0;" horiz-adv-x="1600" d="M50 0l296 975h400l-83 -275h225l-113 371l-6 -21h-400l106 350h600l425 -1400h-400l-106 350h-438l-106 -350h-400zM425 2125h400l300 -550h-400z" />
<glyph unicode="&#xc1;" horiz-adv-x="1600" d="M50 0l296 975h400l-83 -275h225l-113 371l-6 -21h-400l106 350h600l425 -1400h-400l-106 350h-438l-106 -350h-400zM425 1575l300 550h400l-300 -550h-400z" />
<glyph unicode="&#xc2;" horiz-adv-x="1600" d="M50 0l296 975h400l-83 -275h225l-113 371l-6 -21h-400l106 350h600l425 -1400h-400l-106 350h-438l-106 -350h-400zM250 1575l300 550h450l300 -550h-400l-125 229l-125 -229h-400z" />
<glyph unicode="&#xc3;" horiz-adv-x="1600" d="M50 0l296 975h400l-83 -275h225l-113 371l-6 -21h-400l106 350h600l425 -1400h-400l-106 350h-438l-106 -350h-400zM225 1575v275l175 175h525v100h400v-275l-175 -175h-525v-100h-400z" />
<glyph unicode="&#xc4;" horiz-adv-x="1600" d="M50 0l296 975h400l-83 -275h225l-113 371l-6 -21h-400l106 350h600l425 -1400h-400l-106 350h-438l-106 -350h-400zM225 1600v350h400v-350h-400zM925 1600v350h400v-350h-400z" />
<glyph unicode="&#xc5;" horiz-adv-x="1600" d="M50 0l296 975h400l-83 -275h225l-113 371l-6 -21h-400l106 350h600l425 -1400h-400l-106 350h-438l-106 -350h-400zM575 1600v350h400v-350h-400z" />
<glyph unicode="&#xc6;" horiz-adv-x="2101" d="M50 0l296 975h400l-83 -275h225l-113 371l-6 -21h-400l106 350h1526l-1 -350h-700v-175h401l-1 -350h-400v-175h701l-1 -350h-1100v350h-344l-106 -350h-400z" />
<glyph unicode="&#xc7;" horiz-adv-x="1401" d="M100 175v800h400v-625l400 1v200h401l-1 -375l-175 -175h-224l-1 -275l-175 -175l-425 -1v350l200 1v99h-225zM100 1050v175l174 175h851l175 -175v-375l-401 1l1 199h-800z" />
<glyph unicode="&#xc8;" horiz-adv-x="1301" d="M100 0l1 975h399v-100h401l-1 -350h-400v-175h701l-1 -350h-1100zM101 1050v350h1100l-1 -350h-1099zM300 2125h400l300 -550h-400z" />
<glyph unicode="&#xc9;" horiz-adv-x="1301" d="M100 0l1 975h399v-100h401l-1 -350h-400v-175h701l-1 -350h-1100zM101 1050v350h1100l-1 -350h-1099zM300 1575l300 550h400l-300 -550h-400z" />
<glyph unicode="&#xca;" horiz-adv-x="1301" d="M100 0l1 975h399v-100h401l-1 -350h-400v-175h701l-1 -350h-1100zM101 1050v350h1100l-1 -350h-1099zM125 1575l300 550h450l300 -550h-400l-125 229l-125 -229h-400z" />
<glyph unicode="&#xcb;" horiz-adv-x="1301" d="M100 0l1 975h399v-100h401l-1 -350h-400v-175h701l-1 -350h-1100zM100 1600v350h400v-350h-400zM101 1050v350h1100l-1 -350h-1099zM800 1600v350h400v-350h-400z" />
<glyph unicode="&#xcc;" horiz-adv-x="750" d="M-50 2125h400l300 -550h-400zM100 0v1400h400v-1400h-400z" />
<glyph unicode="&#xcd;" horiz-adv-x="750" d="M-50 1575l300 550h400l-300 -550h-400zM100 0v1400h400v-1400h-400z" />
<glyph unicode="&#xce;" horiz-adv-x="925" d="M-225 1575l300 550h450l300 -550h-400l-125 229l-125 -229h-400zM100 0v1400h400v-1400h-400z" />
<glyph unicode="&#xcf;" horiz-adv-x="950" d="M-250 1600v350h400v-350h-400zM100 0v1400h400v-1400h-400zM450 1600v350h400v-350h-400z" />
<glyph unicode="&#xd0;" d="M100 525v350h150v525h875l175 -175v-1049l-175 -175l-875 -1v525h-150zM650 350l250 1v699h-250v-175h125v-350h-125v-175z" />
<glyph unicode="&#xd1;" horiz-adv-x="1700" d="M100 0v975h400v-975h-400zM100 1050v350h625l475 -858v857h400v-1399h-525l-575 1050h-400zM300 1575v275l175 175h525v100h400v-275l-175 -175h-525v-100h-400z" />
<glyph unicode="&#xd2;" d="M100 175v800h400v-625l400 1v699h-800v175l174 175h851l175 -175v-1049l-175 -175l-850 -1zM350 2125h400l300 -550h-400z" />
<glyph unicode="&#xd3;" d="M100 175v800h400v-625l400 1v699h-800v175l174 175h851l175 -175v-1049l-175 -175l-850 -1zM350 1575l300 550h400l-300 -550h-400z" />
<glyph unicode="&#xd4;" d="M100 175v800h400v-625l400 1v699h-800v175l174 175h851l175 -175v-1049l-175 -175l-850 -1zM175 1575l300 550h450l300 -550h-400l-125 229l-125 -229h-400z" />
<glyph unicode="&#xd5;" d="M100 175v800h400v-625l400 1v699h-800v175l174 175h851l175 -175v-1049l-175 -175l-850 -1zM150 1575v275l175 175h525v100h400v-275l-175 -175h-525v-100h-400z" />
<glyph unicode="&#xd6;" d="M100 175v800h400v-625l400 1v699h-800v175l174 175h851l175 -175v-1049l-175 -175l-850 -1zM150 1600v350h400v-350h-400zM850 1600v350h400v-350h-400z" />
<glyph unicode="&#xd7;" horiz-adv-x="1300" d="M100 100l338 600l-338 600h425l125 -216l125 216h425l-337 -600l337 -600h-425l-125 216l-125 -216h-425z" />
<glyph unicode="&#xd8;" d="M100 175v800h400v-275l400 350h-800v175l174 175h851l175 -175v-1049l-175 -175l-850 -1zM500 350l400 1v349z" />
<glyph unicode="&#xd9;" d="M100 175v1225h400v-1050l400 1v1049h400v-1224l-175 -175l-850 -1zM350 2125h400l300 -550h-400z" />
<glyph unicode="&#xda;" d="M100 175v1225h400v-1050l400 1v1049h400v-1224l-175 -175l-850 -1zM350 1575l300 550h400l-300 -550h-400z" />
<glyph unicode="&#xdb;" d="M100 175v1225h400v-1050l400 1v1049h400v-1224l-175 -175l-850 -1zM175 1575l300 550h450l300 -550h-400l-125 229l-125 -229h-400z" />
<glyph unicode="&#xdc;" d="M100 175v1225h400v-1050l400 1v1049h400v-1224l-175 -175l-850 -1zM150 1600v350h400v-350h-400zM850 1600v350h400v-350h-400z" />
<glyph unicode="&#xdd;" horiz-adv-x="1350" d="M50 1400h425l386 -703l-11 -20v-677h-400v677zM300 1575l300 550h400l-300 -550h-400zM687 1150l138 250h425l-352 -635z" />
<glyph unicode="&#xde;" d="M100 0v1400h400v-250h625l175 -175v-524l-175 -175l-625 -1v-275h-400zM500 625l400 1v174h-400v-175z" />
<glyph unicode="&#xdf;" d="M100 0v1225l176 175h849l175 -175v-425l-100 -100l100 -100v-424l-175 -175h-425v350h200v174h-200v351h200v174h-400v-1050h-400z" />
<glyph unicode="&#xe0;" horiz-adv-x="1600" d="M50 0l425 1400h600l425 -1400h-400l-106 350h-438l-106 -350h-400zM425 2125h400l300 -550h-400zM663 700h225l-113 371z" />
<glyph unicode="&#xe1;" horiz-adv-x="1600" d="M50 0l425 1400h600l425 -1400h-400l-106 350h-438l-106 -350h-400zM425 1575l300 550h400l-300 -550h-400zM663 700h225l-113 371z" />
<glyph unicode="&#xe2;" horiz-adv-x="1600" d="M50 0l425 1400h600l425 -1400h-400l-106 350h-438l-106 -350h-400zM250 1575l300 550h450l300 -550h-400l-125 229l-125 -229h-400zM663 700h225l-113 371z" />
<glyph unicode="&#xe3;" horiz-adv-x="1600" d="M50 0l425 1400h600l425 -1400h-400l-106 350h-438l-106 -350h-400zM225 1575v275l175 175h525v100h400v-275l-175 -175h-525v-100h-400zM663 700h225l-113 371z" />
<glyph unicode="&#xe4;" horiz-adv-x="1600" d="M50 0l425 1400h600l425 -1400h-400l-106 350h-438l-106 -350h-400zM225 1600v350h400v-350h-400zM663 700h225l-113 371zM925 1600v350h400v-350h-400z" />
<glyph unicode="&#xe5;" horiz-adv-x="1600" d="M50 0l425 1400h600l425 -1400h-400l-106 350h-438l-106 -350h-400zM575 1600v350h400v-350h-400zM663 700h225l-113 371z" />
<glyph unicode="&#xe6;" horiz-adv-x="2100" d="M50 0l425 1400h1525v-350h-701v-175h401l-1 -350h-398v-175h699l-1 -350h-1100v350h-343l-106 -350h-400zM663 700h225l-113 371z" />
<glyph unicode="&#xe7;" horiz-adv-x="1401" d="M100 175v1050l174 175h851l175 -175v-375l-401 1l1 199h-400v-700l400 1v200h401l-1 -375l-175 -175h-224l-1 -275l-175 -175l-425 -1v350l200 1v99h-225z" />
<glyph unicode="&#xe8;" horiz-adv-x="1301" d="M100 0l1 1400h1100l-1 -350h-700v-175h401l-1 -350h-400v-175h701l-1 -350h-1100zM300 2125h400l300 -550h-400z" />
<glyph unicode="&#xe9;" horiz-adv-x="1301" d="M100 0l1 1400h1100l-1 -350h-700v-175h401l-1 -350h-400v-175h701l-1 -350h-1100zM300 1575l300 550h400l-300 -550h-400z" />
<glyph unicode="&#xea;" horiz-adv-x="1301" d="M100 0l1 1400h1100l-1 -350h-700v-175h401l-1 -350h-400v-175h701l-1 -350h-1100zM125 1575l300 550h450l300 -550h-400l-125 229l-125 -229h-400z" />
<glyph unicode="&#xeb;" horiz-adv-x="1301" d="M100 0l1 1400h1100l-1 -350h-700v-175h401l-1 -350h-400v-175h701l-1 -350h-1100zM100 1600v350h400v-350h-400zM800 1600v350h400v-350h-400z" />
<glyph unicode="&#xec;" horiz-adv-x="750" d="M-50 2125h400l300 -550h-400zM100 0v1400h400v-1400h-400z" />
<glyph unicode="&#xed;" horiz-adv-x="750" d="M-50 1575l300 550h400l-300 -550h-400zM100 0v1400h400v-1400h-400z" />
<glyph unicode="&#xee;" horiz-adv-x="925" d="M-225 1575l300 550h450l300 -550h-400l-125 229l-125 -229h-400zM100 0v1400h400v-1400h-400z" />
<glyph unicode="&#xef;" horiz-adv-x="950" d="M-250 1600v350h400v-350h-400zM100 0v1400h400v-1400h-400zM450 1600v350h400v-350h-400z" />
<glyph unicode="&#xf0;" d="M100 525v350h150v525h875l175 -175v-1049l-175 -175l-875 -1v525h-150zM650 350l250 1v699h-250v-175h125v-350h-125v-175z" />
<glyph unicode="&#xf1;" horiz-adv-x="1700" d="M100 0v1400h625l475 -858v857h400v-1399h-525l-575 1039v-1039h-400zM300 1575v275l175 175h525v100h400v-275l-175 -175h-525v-100h-400z" />
<glyph unicode="&#xf2;" d="M100 175v1050l174 175h851l175 -175v-1049l-175 -175l-850 -1zM350 2125h400l300 -550h-400zM500 350l400 1v699h-400v-700z" />
<glyph unicode="&#xf3;" d="M100 175v1050l174 175h851l175 -175v-1049l-175 -175l-850 -1zM350 1575l300 550h400l-300 -550h-400zM500 350l400 1v699h-400v-700z" />
<glyph unicode="&#xf4;" d="M100 175v1050l174 175h851l175 -175v-1049l-175 -175l-850 -1zM175 1575l300 550h450l300 -550h-400l-125 229l-125 -229h-400zM500 350l400 1v699h-400v-700z" />
<glyph unicode="&#xf5;" d="M100 175v1050l174 175h851l175 -175v-1049l-175 -175l-850 -1zM150 1575v275l175 175h525v100h400v-275l-175 -175h-525v-100h-400zM500 350l400 1v699h-400v-700z" />
<glyph unicode="&#xf6;" d="M100 175v1050l174 175h851l175 -175v-1049l-175 -175l-850 -1zM150 1600v350h400v-350h-400zM500 350l400 1v699h-400v-700zM850 1600v350h400v-350h-400z" />
<glyph unicode="&#xf7;" horiz-adv-x="1300" d="M100 525v350h1100l-1 -350h-1099zM450 75v350h400v-350h-400zM450 975v350h400v-350h-400z" />
<glyph unicode="&#xf8;" d="M100 175v1050l174 175h851l175 -175v-1049l-175 -175l-850 -1zM500 350l400 1v349zM500 700l400 350h-400v-350z" />
<glyph unicode="&#xf9;" d="M100 175v1225h400v-1050l400 1v1049h400v-1224l-175 -175l-850 -1zM350 2125h400l300 -550h-400z" />
<glyph unicode="&#xfa;" d="M100 175v1225h400v-1050l400 1v1049h400v-1224l-175 -175l-850 -1zM350 1575l300 550h400l-300 -550h-400z" />
<glyph unicode="&#xfb;" d="M100 175v1225h400v-1050l400 1v1049h400v-1224l-175 -175l-850 -1zM175 1575l300 550h450l300 -550h-400l-125 229l-125 -229h-400z" />
<glyph unicode="&#xfc;" d="M100 175v1225h400v-1050l400 1v1049h400v-1224l-175 -175l-850 -1zM150 1600v350h400v-350h-400zM850 1600v350h400v-350h-400z" />
<glyph unicode="&#xfd;" horiz-adv-x="1350" d="M50 1400h425l175 -316l175 316h425l-400 -723v-677h-400v677zM300 1575l300 550h400l-300 -550h-400z" />
<glyph unicode="&#xfe;" d="M100 0v1400h400v-250h625l175 -175v-524l-175 -175l-625 -1v-275h-400zM500 625l400 1v174h-400v-175z" />
<glyph unicode="&#xff;" horiz-adv-x="1350" d="M50 1400h425l175 -316l175 316h425l-400 -723v-677h-400v677zM100 1600v350h400v-350h-400zM800 1600v350h400v-350h-400z" />
<glyph unicode="&#x152;" horiz-adv-x="2100" d="M100 175v800h400v-625h400v700h-800v175l174 175h1726l-1 -350h-699v-175h400l-1 -350h-399v-175h700l-1 -350h-1724z" />
<glyph unicode="&#x153;" horiz-adv-x="2100" d="M100 175v1050l174 175h1726l-1 -350h-699v-175h400l-1 -350h-399v-175h700l-1 -350h-1724zM500 350l400 1v699h-400v-700z" />
<glyph unicode="&#x2c6;" horiz-adv-x="1250" d="M100 1575l300 550h450l300 -550h-400l-125 229l-125 -229h-400z" />
<glyph unicode="&#x2dc;" horiz-adv-x="1300" d="M100 1575v275l175 175h525v100h400v-275l-175 -175h-525v-100h-400z" />
<glyph unicode="&#x2000;" horiz-adv-x="1062" />
<glyph unicode="&#x2001;" horiz-adv-x="2125" />
<glyph unicode="&#x2002;" horiz-adv-x="1062" />
<glyph unicode="&#x2003;" horiz-adv-x="2125" />
<glyph unicode="&#x2004;" horiz-adv-x="708" />
<glyph unicode="&#x2005;" horiz-adv-x="531" />
<glyph unicode="&#x2006;" horiz-adv-x="354" />
<glyph unicode="&#x2007;" horiz-adv-x="354" />
<glyph unicode="&#x2008;" horiz-adv-x="265" />
<glyph unicode="&#x2009;" horiz-adv-x="425" />
<glyph unicode="&#x200a;" horiz-adv-x="118" />
<glyph unicode="&#x2010;" horiz-adv-x="1300" d="M100 525v350h1100l-1 -350h-1099z" />
<glyph unicode="&#x2011;" horiz-adv-x="1300" d="M100 525v350h1100l-1 -350h-1099z" />
<glyph unicode="&#x2012;" horiz-adv-x="1300" d="M100 525v350h1100l-1 -350h-1099z" />
<glyph unicode="&#x2013;" horiz-adv-x="1300" d="M100 525v350h1100l-1 -350h-1099z" />
<glyph unicode="&#x2014;" horiz-adv-x="1300" d="M100 525v350h1100l-1 -350h-1099z" />
<glyph unicode="&#x2018;" horiz-adv-x="600" d="M100 850v375l175 175h225v-550h-400z" />
<glyph unicode="&#x2019;" horiz-adv-x="600" d="M100 850v550h400v-375l-175 -175h-225z" />
<glyph unicode="&#x201a;" horiz-adv-x="600" d="M100 -200v550h400v-375l-175 -175h-225z" />
<glyph unicode="&#x201c;" horiz-adv-x="1100" d="M100 850v375l175 175h225v-550h-400zM600 850v375l175 175h225v-550h-400z" />
<glyph unicode="&#x201d;" horiz-adv-x="1100" d="M100 850v550h400v-375l-175 -175h-225zM600 850v550h400v-375l-175 -175h-225z" />
<glyph unicode="&#x201e;" horiz-adv-x="1100" d="M100 -200v550h400v-375l-175 -175h-225zM600 -200v550h400v-375l-175 -175h-225z" />
<glyph unicode="&#x2022;" horiz-adv-x="1008" d="M316 718q0 123 87 209t210 86q122 0 208.5 -86.5t86.5 -208.5t-87.5 -209.5t-209.5 -87.5q-123 0 -209 87t-86 210z" />
<glyph unicode="&#x2026;" horiz-adv-x="1600" d="M100 0v350h400v-350h-400zM600 0v350h400v-350h-400zM1100 0v350h400v-350h-400z" />
<glyph unicode="&#x202f;" horiz-adv-x="425" />
<glyph unicode="&#x2039;" horiz-adv-x="1301" d="M100 525v375l1101 400l-1 -350l-653 -237l653 -238l-1 -350z" />
<glyph unicode="&#x203a;" horiz-adv-x="1301" d="M100 1300l1101 -400v-375l-1099 -400l-1 350l653 238l-653 237z" />
<glyph unicode="&#x205f;" horiz-adv-x="531" />
<glyph unicode="&#x20ac;" d="M100 525v350h150v350l174 175h701l175 -175v-175h-650v-175h550l-1 -350h-549v-175h650v-174l-175 -175l-700 -1l-175 175v350h-150z" />
<glyph unicode="&#x2122;" horiz-adv-x="1700" d="M100 1225v175h600v-175h-600zM300 701v487h200v-487h-200zM800 700v700h275l125 -412l125 412h275v-700h-200v288l-87 -288h-225l-88 288v-288h-200z" />
<glyph unicode="&#x25fc;" d="M0 0v1400h1400v-1400h-1400z" />
</font>
</defs>
</svg>
